<svg width="55" height="21" viewBox="0 0 55 21" fill="none" xmlns="http://www.w3.org/2000/svg">
<path d="M5.53051 5.11724H0V0H17.1455V5.11724H11.608V20.0106H5.53051V5.11724Z" fill="#EC2227"/>
<path d="M36.1038 0H46.0917C49.3527 0.0555656 51.6691 1.08179 53.0391 3.08042C54.364 5.05994 55.0169 7.35897 54.9995 9.97923C55.0464 16.5394 51.6812 19.8838 44.904 20.0123H36.1055V0H36.1038ZM42.1812 14.8933H44.5636C45.5291 14.8933 46.2948 14.7145 46.8644 14.3585C47.4426 14.0025 47.8802 13.5719 48.1771 13.0683C48.4654 12.5474 48.6685 12.0022 48.7866 11.4344C48.8769 10.8579 48.922 10.3456 48.922 9.89588C48.922 9.53992 48.8943 9.09539 48.8404 8.56405C48.7501 8.04312 48.5383 7.52045 48.2049 6.99953C47.8889 6.46818 47.4061 6.01497 46.7567 5.63991C46.1073 5.29262 45.2321 5.11898 44.1312 5.11898H42.183V14.8933H42.1812Z" fill="#EC2227"/>
<path d="M34.9299 14.8933H24.3568V12.3859H34.9299V7.6229H24.3568V5.11724H34.9299V0H18.2793V20.0106H34.9299V14.8933Z" fill="#EC2227"/>
</svg>
